PathFileType	4	(X/Y/Z)	C:\Github\BTS_project\Data\sports2d_results\Single_Hop4 Exam_2026-03-06_123833_tvc2_Sports2D\Single_Hop4 Exam_2026-03-06_123833_tvc2_Sports2D_px_person00.trc
DataRate	CameraRate	NumFrames	NumMarkers	Units	OrigDataRate	OrigDataStartFrame	OrigNumFrames
30.0	30.0	4	22	m	30.0	69	278
Frame#	Time	Hip			RHip			RKnee			RAnkle			RBigToe			RSmallToe			RHeel			LHip			LKnee			LAnkle			LBigToe			LSmallToe			LHeel			Neck			Head			Nose			RShoulder			RElbow			RWrist			LShoulder			LElbow			LWrist			
		X1	Y1	Z1	X2	Y2	Z2	X3	Y3	Z3	X4	Y4	Z4	X5	Y5	Z5	X6	Y6	Z6	X7	Y7	Z7	X8	Y8	Z8	X9	Y9	Z9	X10	Y10	Z10	X11	Y11	Z11	X12	Y12	Z12	X13	Y13	Z13	X14	Y14	Z14	X15	Y15	Z15	X16	Y16	Z16	X17	Y17	Z17	X18	Y18	Z18	X19	Y19	Z19	X20	Y20	Z20	X21	Y21	Z21	X22	Y22	Z22
69	2.3083032490974733	436.6101905649408	687.2244223974855	0.0	404.43455225863227	683.8116044187791	0.0	385.16510760383466	798.1276823107535	0.0	391.5672432071716	868.0734652179383	0.0	385.56202794277334	918.6175208002721	0.0	369.92748501502564	908.8485032941528	0.0	398.562992233973	872.3829266447495	0.0	472.1617670847811	693.6079965939163	0.0	464.52886885999345	819.6923231238136	0.0	446.6772880785535	926.7741436967257	0.0	441.18127162680787	968.8977966492554	0.0	462.14622567710575	965.7539202541827	0.0	436.73602356866763	941.5290214579479	0.0	465.62166746622864	513.2147352851562	0.0	481.6233856436759	435.8516781191233	0.0	476.03383072092174	485.1606952471402	0.0	400.14316753280826	516.8193291729631	0.0	348.37560192313526	567.1566067163471	0.0	365.61956244338774	639.7339549491942	0.0	523.5395410561141	532.6228539883034	0.0	570.9008386562657	593.1689414889062	0.0	530.0750895801248	649.8722915052343	0.0
70	2.3417569193742485	437.0504863979565	687.4496483483955	0.0	404.12166088247443	684.8885635768478	0.0	385.1946574014204	798.7098363457002	0.0	391.65080620401216	868.0713140476522	0.0	384.872553224498	917.972290820173	0.0	369.53775627984805	907.9442124681307	0.0	398.6987078760709	872.5933829535985	0.0	472.2915639400936	694.8110983750564	0.0	464.74644008445995	819.5555718810627	0.0	446.32264498199584	926.8482818991923	0.0	440.8079066161226	968.8183285261545	0.0	461.8741113513893	965.7731165797228	0.0	436.44437066975206	941.451891715379	0.0	466.2000205265814	513.7745114348616	0.0	482.8976102605167	436.47699177062054	0.0	476.87432119850416	484.96804554165317	0.0	401.48696753435615	516.7868119570572	0.0	348.9051361397751	567.1581473257274	0.0	366.2420093033942	639.3951584246066	0.0	524.3435079172953	533.0953933705562	0.0	571.3783392499301	592.9912000827455	0.0	530.1874412157088	650.1172468988385	0.0
71	2.375210589651023	437.82437048471206	687.5889940530178	0.0	403.8954582873938	685.2945453196792	0.0	385.17754448423966	798.5934979551906	0.0	391.75441144432733	868.024589224467	0.0	384.45299572418776	917.4870964600242	0.0	369.70452938990695	907.5223460560851	0.0	398.99246327738604	872.3277386523365	0.0	472.46077056265665	695.2239869670376	0.0	464.72240801068057	819.4947681103667	0.0	446.1017271391752	927.0250126874512	0.0	440.80415483517675	968.830276071963	0.0	461.7446001269021	966.1403916176826	0.0	436.303950188202	941.4238216340353	0.0	467.24075721997116	514.4200380575694	0.0	484.28171315877273	436.95309516164735	0.0	478.05374313175747	485.47932213120157	0.0	402.94087710977897	516.6948778448156	0.0	349.08434368872247	567.3040793587671	0.0	366.7999544517285	639.253192875368	0.0	524.7105513056041	533.1102438122192	0.0	571.4554027400917	592.5702412065322	0.0	530.396634444035	650.1162853074067	0.0
72	2.4086642599277983	438.2506692401907	687.6056234720572	0.0	403.918990799006	685.9172039863898	0.0	385.02445378718494	798.3149928169074	0.0	391.85257281390875	867.4480751735528	0.0	384.46983554467573	916.9017872325142	0.0	370.1982092159826	907.3223844143953	0.0	399.1838613200009	871.7108237738746	0.0	472.1514852920883	695.2907603752998	0.0	464.2508856015335	819.5609005189679	0.0	445.9444268455985	927.2810075028427	0.0	441.21103204513076	969.2230919775369	0.0	461.77085193776037	966.8689611270188	0.0	436.3270134537713	941.5763228791905	0.0	468.399044853335	514.5783545238672	0.0	485.2159562987936	436.7771055889002	0.0	479.14290316281625	486.5062004562774	0.0	403.5346984454683	516.643054615073	0.0	349.0718257255038	567.3688009806681	0.0	366.94993509562875	638.8368998803919	0.0	525.1730616578938	533.0865685304788	0.0	571.2820339953679	592.8759157715638	0.0	530.8012346066844	650.0581614305535	0.0
